<?xml version="1.0" encoding="UTF-8"?>
<svg id="Capa_2" data-name="Capa 2" xmlns="http://www.w3.org/2000/svg" viewBox="0 0 1514.16 1514.16">
  <defs>
    <style>
      .cls-1 {
        fill: none;
        stroke: #fff;
        stroke-miterlimit: 10;
        stroke-width: 2px;
      }

      .cls-2 {
        opacity: .1;
      }
    </style>
  </defs>
  <g id="Capa_1-2" data-name="Capa 1">
    <g class="cls-2">
      <ellipse class="cls-1" cx="327.41" cy="246.86" rx="211.28" ry="39.1" transform="translate(-82.04 268.93) rotate(-40.1)"/>
      <path class="cls-1" d="M603.22,142.38c39.33,59.02-28.22,182.19-150.88,275.12-122.66,92.93-253.98,120.42-293.31,61.4-39.33-59.02,28.22-182.19,150.88-275.12,122.66-92.93,253.98-120.42,293.31-61.4Z"/>
      <path class="cls-1" d="M717.41,173.99c64.76,101.52-9.27,273.55-165.34,384.24-156.07,110.69-335.08,118.13-399.84,16.62-64.76-101.52,9.27-273.55,165.34-384.24,156.07-110.69,335.08-118.13,399.84-16.62Z"/>
      <path class="cls-1" d="M831.61,205.6c90.18,144.02,9.68,364.9-179.79,493.36-189.48,128.46-416.18,115.85-506.36-28.17-90.18-144.02-9.68-364.9,179.79-493.36,189.48-128.46,416.18-115.85,506.36,28.17Z"/>
      <path class="cls-1" d="M945.81,237.21c115.6,186.52,28.63,456.26-194.25,602.48-222.88,146.23-497.28,113.56-612.88-72.95-115.6-186.52-28.63-456.26,194.25-602.48,222.88-146.23,497.28-113.56,612.88,72.95Z"/>
      <path class="cls-1" d="M1060.01,268.82c141.02,229.02,47.58,547.61-208.71,711.6-256.29,163.99-578.38,111.28-719.4-117.74C-9.12,633.67,84.32,315.07,340.61,151.08,596.9-12.91,918.99,39.8,1060.01,268.82Z"/>
      <path class="cls-1" d="M1174.21,300.43c166.44,271.51,66.53,638.96-223.17,820.72-289.7,181.76-659.48,108.99-825.92-162.52C-41.33,687.11,58.59,319.66,348.29,137.91,637.99-43.85,1007.76,28.91,1174.21,300.43Z"/>
      <path class="cls-1" d="M1288.41,332.04c191.87,314.01,85.48,730.32-237.63,929.84-323.11,199.52-740.57,106.71-932.44-207.3C-73.53,740.56,32.86,324.25,355.97,124.73c323.11-199.52,740.57-106.71,932.44,207.3Z"/>
      <circle class="cls-1" cx="757.08" cy="757.08" r="755.97"/>
    </g>
  </g>
</svg>