<?xml version="1.0" encoding="UTF-8"?>
<svg id="Capa_2" data-name="Capa 2" xmlns="http://www.w3.org/2000/svg" viewBox="0 0 1515.25 1515.25">
  <defs>
    <style>
      .cls-1 {
        opacity: .35;
      }

      .cls-2 {
        fill: none;
        stroke: #000;
        stroke-miterlimit: 10;
        stroke-width: 3px;
      }
    </style>
  </defs>
  <g id="Capa_1-2" data-name="Capa 1">
    <g class="cls-1">
      <ellipse class="cls-2" cx="247.4" cy="327.95" rx="211.28" ry="39.1" transform="translate(-162.81 305.94) rotate(-49.9)"/>
      <path class="cls-2" d="M147.91,606.6c60.59,36.57,182.8-34.48,272.97-158.71,90.17-124.23,114.15-254.59,53.56-291.16-60.59-36.57-182.8,34.48-272.97,158.71-90.17,124.23-114.15,254.59-53.56,291.16Z"/>
      <path class="cls-2" d="M184.52,723.64c104.65,59.24,274.76-21.8,379.93-181.01,105.18-159.2,105.6-336.29.94-395.52-104.65-59.24-274.76,21.8-379.93,181.01-105.18,159.2-105.6,336.29-.94,395.52Z"/>
      <path class="cls-2" d="M221.12,840.68c148.72,81.9,366.71-9.12,486.9-203.3,120.18-194.18,97.05-417.99-51.68-499.89-148.72-81.9-366.71,9.12-486.9,203.3-120.18,194.18-97.05,417.99,51.68,499.89Z"/>
      <path class="cls-2" d="M257.73,957.71c192.79,104.56,458.67,3.56,593.86-225.6,135.19-229.16,88.49-499.69-104.3-604.26-192.79-104.56-458.67-3.56-593.86,225.6-135.19,229.16-88.49,499.69,104.3,604.26Z"/>
      <path class="cls-2" d="M294.34,1074.75c236.86,127.23,550.63,16.24,700.82-247.89,150.2-264.13,79.94-581.39-156.91-708.62C601.39-8.99,287.62,102,137.42,366.13-12.78,630.27,57.48,947.53,294.34,1074.75Z"/>
      <path class="cls-2" d="M330.94,1191.79c280.93,149.89,642.59,28.92,807.79-270.18,165.2-299.11,71.39-663.1-209.53-812.99C648.27-41.27,286.61,79.7,121.41,378.81c-165.2,299.11-71.39,663.1,209.53,812.99Z"/>
      <path class="cls-2" d="M367.55,1308.83c324.99,172.55,734.54,41.61,914.75-292.48,180.21-334.09,62.84-744.8-262.15-917.35C695.15-73.55,285.6,57.39,105.39,391.48c-180.21,334.09-62.84,744.8,262.15,917.35Z"/>
      <circle class="cls-2" cx="757.62" cy="757.62" r="755.97"/>
    </g>
  </g>
</svg>