<?xml version="1.0" encoding="UTF-8"?>
<svg id="Capa_2" data-name="Capa 2" xmlns="http://www.w3.org/2000/svg" viewBox="0 0 801.26 242.29">
  <defs>
    <style>
      .cls-1 {
        fill: #fff;
      }

      .cls-2 {
        fill: #d6d8db;
      }
    </style>
  </defs>
  <g id="Capa_4" data-name="Capa 4">
    <g>
      <g>
        <path class="cls-2" d="M.02,134.09s4.66-27.7,83.33-30.56c78.67-2.87,102.43,50.94,102.43,50.94l2.67,6.93s-91.26-51.29-140.35-27.38C-.98,157.94.02,134.09.02,134.09Z"/>
        <path class="cls-2" d="M185.79,154.46c-.83.08-1.65.16-2.48.23-9.51-9.28-21.8-12.78-34.06-16.34,2.36-5.21,6.4-8.57,11.68-10.56,10.31,7.01,19.7,14.87,24.86,26.68Z"/>
        <path class="cls-2" d="M40.91,213.1c-1.38-.89-2.61-2.09-3.57-3.42-2.37-3.27-3.04-7.15.36-9.93,1.94-1.59,4.21-2.8,6.46-3.9,7.06-3.43,14.7-5.75,22.33-7.53,9.79-2.29,19.84-3.61,29.89-3.78,10.6-.18,21.32.92,31.49,4.05,1.51.47,3.01.98,4.49,1.54,40.61,15.33-82.71,28.9-90.34,22.97"/>
        <path class="cls-1" d="M35.77,206.74c3.79,5.99,6.03,10.42,11.75,14.92,17.97,14.16,40.29,12.64,61.22,7.41,41.13-10.28,81.76-31.33,107.95-65.47,15.65-20.39,25.26-46.16,22.93-71.75,3.66,7.86,6.13,16.27,7.31,24.86-1.07-9.61-1.92-19.57-4.05-29.01-5.36-23.79-20.5-52.57-46.4-58.43,14.39,3.26,29.64,22.63,31.81,36.79,1.9,12.39-3.58,27.23-8.53,38.45-4.93,11.19-11.58,21.57-19.31,31.02-15.96,19.5-36.36,35.16-58.13,47.67-14.98,8.6-30.79,15.79-47.11,21.44-8.63,2.99-17.41,5.59-26.36,7.45-7.84,1.63-15.83,2.33-23.83,1.58-1.11-.1-2.22-.24-3.27-.61-3.17-1.12-4.18-3.46-5.97-6.3Z"/>
        <path class="cls-2" d="M10.74,67.96c3.42-4.17,6.48-8.46,10.66-11.92,7.43-6.17,16.37-9.25,25.6-11.67,20.08-5.27,41.72-5.97,62.31-3.98,6.02.58,12.02,1.45,17.96,2.61,15.72,3.08,33.4,8.04,46.78,17.18,1.62,1.11,3.24,2.32,4.55,3.79.51.57,1.98,3.78,2.38,3.95,0,0-60.43-24.67-88.67-11.5-11.8,5.5-24.18,9.89-36.73,13.33-10.76,2.95-22.72,6.06-33.98,4.89-2.06-.21-4.15-.82-6.03-1.69-1.64-.75-3.96-2.07-4.1-4.12-.02-.3-.91-.64-.72-.87Z"/>
        <path class="cls-1" d="M156.71,12.4c.27.13.57.21.79.4.12.1.08.37.11.57-.26-.36-.52-.71-.78-1.07l-.12.11Z"/>
        <path class="cls-2" d="M44.98,24.72c-.49.24,16.86-16.38,44.23-16.74l.76,1.33-1.23,2.6s-11.13-3.37-43.76,12.8Z"/>
        <path class="cls-1" d="M44.98,24.72c-1.13.73-1.86,4-1.34,5.14.68,1.51,2.66,1.46,4.05,1.31,6.23-.64,16.93-4.52,22.5-7.22,3.46-1.68,6.79-3.57,10.11-5.49,2.34-1.35,4.66-2.84,6.54-4.81.73-.77,3.87-4.58,2.38-5.67,0,0,7,5.38-7.89,15.8-14.89,10.42-40.42,19.24-46.33,15.07s8.1-12.92,9.98-14.13Z"/>
        <path class="cls-1" d="M111.41,241.74c11.46,1.26,26.72-4.78,37.16-8.46,39.07-13.76,71.73-41.37,91.11-78.03-1.03,1.95-.84,5.73-1.41,7.92-1.11,4.25-2.72,8.38-4.63,12.33-8.81,18.16-25.75,32.07-42.23,43.12-17.15,11.5-36.66,20.21-57.26,22.85-7.54.97-15.18,1.1-22.74.27Z"/>
        <path class="cls-1" d="M11.55,67.07s40.17,16.13,94.47-34.07c0,0,24.67-24.53-9.99-23.27,0,0,17.3-10.22,61.46,3.06,0,0-11.67-11.9-44.05-11.35,0,0,20.55-5.85,47.33,5.98,26.78,11.83,39.92,37.4,35.18,59.26-4.75,21.86-24.29,57.01-55.41,77.31-20.87,13.61-41.69,27.85-65,37.03-21.33,8.4-47.91,11-60.98-3.39-5.83-6.42-7.58-18.38-11.22-28.17-.39-1.06-2.33-10.37-3.31-14.31-.22-.9,1.69-.17,2.6,0,9.3,1.69,46.63,4.7,111.38-30.01,17.76-9.52,35.66-21.47,47.38-38.22,6.74-9.63,12.73-23.35,9.76-35.3-4.88-19.6-32.31-20.54-48.4-21.22,3.01.13,7.04,8.2,7.88,10.35,3.65,9.27.28,18.23-5.41,25.7-12.43,16.29-30.38,26.77-47.98,36.57-18.76,10.45-32.85,14.64-53.81,19.26-4.87,1.07-9.83,1.76-14.82,1.38-1.34-.1-2.71-.28-3.91-.9-7.6-3.91,5.05-35.54,6.85-35.7Z"/>
      </g>
      <g>
        <path class="cls-1" d="M389.5,71.43v22.81h36.73v22.65h-36.73v22.81h50.32v22.49h-72.81V48.94h72.81v22.49h-50.32Z"/>
        <path class="cls-1" d="M541.74,80c0,3.67-.83,7.63-2.49,11.89-1.66,4.26-4.79,8.01-9.4,11.24,2.79,1.29,5.21,2.91,7.25,4.85,2.04,1.94,3.7,4.02,4.99,6.23,1.29,2.21,2.25,4.5,2.9,6.88.64,2.37.97,4.69.97,6.96,0,4.21-.62,8.33-1.86,12.38-1.24,4.04-3.34,7.69-6.3,10.92-2.96,3.24-6.89,5.85-11.79,7.85-4.9,2-11.01,2.99-18.33,2.99h-45.86V48.94h45.37c4.84,0,9.36.86,13.56,2.59,4.2,1.73,7.86,4.02,10.98,6.88,3.12,2.86,5.57,6.18,7.35,9.95,1.78,3.78,2.66,7.66,2.66,11.65ZM484.31,93.11h20.39c3.99,0,7.2-.94,9.63-2.83,2.43-1.89,3.64-4.39,3.64-7.52s-1.21-5.8-3.64-8.01c-2.43-2.21-5.64-3.32-9.63-3.32h-20.39v21.68ZM504.86,139.71c6.15,0,10.57-1.16,13.27-3.48,2.69-2.32,4.04-5.04,4.04-8.17,0-1.62-.27-3.18-.81-4.69-.54-1.51-1.46-2.83-2.75-3.96-1.29-1.13-3.07-2.05-5.34-2.75-2.27-.7-5.07-1.05-8.41-1.05h-20.55v24.11h20.55Z"/>
        <path class="cls-1" d="M566.34,162.19V48.94h22.33v113.26h-22.33Z"/>
        <path class="cls-1" d="M644.64,163.33c-4.96,0-9.76-.7-14.4-2.1-4.64-1.4-9.01-3.4-13.11-5.99h.16c-2.91-1.83-5.5-3.83-7.77-5.99-2.27-2.16-3.83-3.72-4.69-4.69l16.83-15.53c.75.97,1.97,2.13,3.64,3.48,1.67,1.35,3.59,2.64,5.74,3.88,2.16,1.24,4.42,2.29,6.8,3.15,2.37.86,4.64,1.29,6.8,1.29,1.83,0,3.67-.22,5.5-.65,1.83-.43,3.5-1.11,5.02-2.02,1.51-.92,2.75-2.13,3.72-3.64.97-1.51,1.46-3.4,1.46-5.66,0-.86-.3-1.81-.89-2.83-.59-1.02-1.62-2.13-3.07-3.32-1.46-1.18-3.48-2.45-6.07-3.8-2.59-1.35-5.83-2.78-9.71-4.29-4.53-1.72-8.74-3.59-12.62-5.58-3.88-1.99-7.26-4.34-10.11-7.04-2.86-2.69-5.07-5.77-6.63-9.22-1.56-3.45-2.34-7.44-2.34-11.97s.86-8.98,2.59-13.02c1.72-4.05,4.18-7.55,7.36-10.52,3.18-2.97,7.01-5.28,11.49-6.96,4.47-1.67,9.41-2.51,14.8-2.51,2.91,0,6.01.38,9.3,1.13,3.29.76,6.5,1.73,9.63,2.91,3.13,1.19,6.07,2.56,8.82,4.13,2.75,1.57,5.04,3.16,6.88,4.77l-13.92,17.47c-2.05-1.4-4.15-2.69-6.31-3.88-1.84-.97-3.94-1.89-6.31-2.75-2.37-.86-4.8-1.29-7.28-1.29-4.53,0-8.07.89-10.6,2.67-2.54,1.78-3.8,4.34-3.8,7.69,0,1.51.46,2.89,1.37,4.13.92,1.24,2.16,2.37,3.72,3.4,1.56,1.03,3.37,1.97,5.42,2.83,2.05.86,4.21,1.67,6.47,2.43,6.47,2.48,11.92,4.99,16.34,7.52,4.42,2.54,7.98,5.23,10.68,8.09,2.69,2.86,4.61,5.93,5.74,9.22,1.13,3.29,1.7,6.88,1.7,10.76,0,4.75-.97,9.22-2.91,13.43-1.94,4.21-4.61,7.85-8.01,10.92-3.4,3.07-7.44,5.5-12.13,7.28-4.69,1.78-9.79,2.67-15.29,2.67Z"/>
        <path class="cls-1" d="M750.29,47.81l50.96,114.39h-24.75l-9.22-20.71h-43.2c-1.4,3.24-2.94,6.71-4.61,10.44-1.67,3.72-3.15,7.15-4.45,10.27h-24.59l50.32-114.39h9.55ZM757.25,119l-11.65-26.21-11.65,26.21h23.3Z"/>
      </g>
      <g>
        <path class="cls-2" d="M404.91,217.9c-1.14,1.34-2.37,2.5-3.71,3.47-1.34.97-2.73,1.78-4.19,2.42s-2.94,1.11-4.46,1.41c-1.52.3-3.03.45-4.54.45-2.97,0-5.76-.51-8.37-1.53-2.61-1.02-4.88-2.42-6.82-4.21-1.94-1.79-3.48-3.89-4.61-6.32-1.14-2.43-1.7-5.04-1.7-7.85s.56-5.32,1.68-7.73c1.12-2.41,2.66-4.51,4.61-6.3,1.95-1.79,4.24-3.2,6.84-4.24,2.61-1.04,5.4-1.56,8.37-1.56,3.44,0,6.57.67,9.4,2.01,2.82,1.34,5.22,3.13,7.19,5.36l-5.26,5.12c-1.5-1.95-3.19-3.34-5.05-4.19-1.87-.85-3.95-1.27-6.26-1.27-1.9,0-3.69.33-5.36,1-1.67.67-3.13,1.59-4.38,2.75-1.25,1.17-2.24,2.52-2.95,4.07-.72,1.55-1.08,3.2-1.08,4.95s.36,3.46,1.08,5c.72,1.55,1.7,2.91,2.95,4.09,1.25,1.18,2.71,2.11,4.38,2.78,1.67.67,3.45,1,5.35,1,1.8,0,3.5-.32,5.1-.96s3.04-1.48,4.3-2.54v-3.69h-8.22v-6.32h15.69v12.78Z"/>
        <path class="cls-2" d="M428.12,224.79c-.57.26-1.21.46-1.93.62-.72.16-1.46.24-2.23.24-1.07,0-2.1-.14-3.08-.41-.99-.27-1.85-.71-2.58-1.32-.73-.61-1.32-1.4-1.75-2.37-.43-.97-.65-2.15-.65-3.52v-32.84h7.37v31.64c0,1.15.24,1.94.73,2.37s1.06.65,1.73.65c.83,0,1.64-.24,2.41-.72v5.65Z"/>
        <path class="cls-2" d="M467.52,211.1c0,2.07-.4,4-1.2,5.77-.8,1.77-1.9,3.3-3.31,4.6-1.4,1.29-3.05,2.31-4.94,3.06s-3.9,1.12-6.04,1.12-4.14-.37-6.02-1.12c-1.87-.75-3.51-1.78-4.91-3.09-1.4-1.31-2.51-2.85-3.31-4.62-.8-1.77-1.2-3.68-1.2-5.72s.41-3.9,1.23-5.67c.82-1.77,1.93-3.32,3.33-4.64,1.41-1.32,3.04-2.36,4.91-3.11,1.87-.75,3.86-1.13,5.96-1.13s4.15.38,6.04,1.13c1.89.75,3.53,1.77,4.94,3.06,1.41,1.29,2.51,2.83,3.31,4.62.8,1.79,1.2,3.7,1.2,5.75ZM460.31,211.1c0-1.18-.22-2.28-.65-3.3-.43-1.02-1.02-1.92-1.77-2.68s-1.63-1.36-2.62-1.8-2.06-.65-3.2-.65-2.2.22-3.2.65-1.87,1.03-2.62,1.8-1.34,1.66-1.78,2.68c-.43,1.02-.65,2.12-.65,3.3s.22,2.28.65,3.3c.43,1.02,1.03,1.91,1.78,2.68s1.62,1.36,2.62,1.8,2.07.65,3.2.65,2.2-.22,3.2-.65,1.88-1.03,2.62-1.8,1.34-1.66,1.77-2.68c.43-1.02.65-2.12.65-3.3Z"/>
        <path class="cls-2" d="M505.87,211.1c0,1.95-.34,3.8-1.03,5.55-.69,1.75-1.65,3.29-2.89,4.62-1.24,1.32-2.72,2.38-4.42,3.16-1.71.78-3.59,1.17-5.63,1.17-1.27,0-2.46-.17-3.57-.5-1.11-.33-2.14-.87-3.12-1.6v1.44h-7.22v-39.73h7.27l.05,13.4c.83-.64,1.83-1.15,2.98-1.53s2.36-.58,3.64-.58c1.77,0,3.49.38,5.16,1.13,1.67.75,3.16,1.78,4.46,3.09s2.35,2.85,3.13,4.62c.79,1.77,1.18,3.69,1.18,5.77ZM498.55,211.1c0-1.28-.2-2.44-.6-3.5-.4-1.05-.97-1.95-1.69-2.7-.72-.75-1.58-1.32-2.57-1.72s-2.09-.6-3.29-.6c-.77,0-1.66.15-2.67.45-1,.3-1.85.69-2.52,1.17v13.31c1.58,1.37,3.36,2.06,5.33,2.06,1.14,0,2.2-.21,3.19-.62.99-.41,1.84-1,2.54-1.75.7-.75,1.26-1.64,1.66-2.68.4-1.04.6-2.18.6-3.42Z"/>
        <path class="cls-2" d="M539.86,224.93h-7.22v-1.48c-1.27.83-2.62,1.4-4.04,1.72-1.42.32-2.88.48-4.39.48-1.4,0-2.67-.2-3.81-.6-1.14-.4-2.12-.97-2.96-1.72-.84-.75-1.48-1.64-1.93-2.66s-.68-2.16-.68-3.4c0-1.56.36-2.93,1.08-4.09.72-1.16,1.7-2.14,2.93-2.92,1.24-.78,2.68-1.36,4.34-1.75,1.66-.38,3.43-.58,5.34-.58h4.16c0-1.63-.55-2.92-1.66-3.88-1.1-.96-2.69-1.44-4.76-1.44-1,0-2.04.18-3.11.53-1.07.35-2.14.99-3.21,1.92l-4.26-4.12c1.54-1.4,3.32-2.49,5.34-3.26s4.1-1.15,6.24-1.15c2,0,3.79.3,5.36.91s2.83,1.39,3.79,2.34c1.26,1.21,2.15,2.57,2.66,4.07.51,1.5.77,3.42.77,5.75v15.32ZM532.64,218.04v-5.12h-3.31c-1,0-1.95.06-2.83.19-.88.13-1.65.34-2.31.65-.65.3-1.17.69-1.55,1.17s-.58,1.05-.58,1.72c0,.96.39,1.74,1.18,2.34.79.61,1.8.91,3.03.91,1.07,0,2.13-.16,3.18-.48,1.05-.32,2.11-.78,3.19-1.39Z"/>
        <path class="cls-2" d="M563.62,224.79c-.57.26-1.21.46-1.93.62-.72.16-1.46.24-2.23.24-1.07,0-2.1-.14-3.08-.41-.99-.27-1.85-.71-2.58-1.32s-1.32-1.4-1.75-2.37-.65-2.15-.65-3.52v-32.84h7.37v31.64c0,1.15.24,1.94.73,2.37s1.06.65,1.73.65c.83,0,1.64-.24,2.41-.72v5.65Z"/>
        <path class="cls-2" d="M624.42,213.97c0,1.6-.34,3.07-1.03,4.43-.68,1.36-1.6,2.52-2.73,3.5-1.13.97-2.45,1.73-3.93,2.27-1.49.54-3.05.81-4.69.81l-16.19-.05v-38.3h14.44c1.74,0,3.35.25,4.84.74,1.49.49,2.78,1.21,3.89,2.15s1.96,2.09,2.58,3.45c.62,1.36.93,2.88.93,4.57,0,1.44-.33,2.83-1,4.17-.67,1.34-1.55,2.47-2.66,3.4.87.41,1.65.94,2.33,1.58s1.27,1.35,1.75,2.13c.48.78.85,1.61,1.1,2.49.25.88.38,1.76.38,2.66ZM614.85,197.7c0-.93-.18-1.72-.55-2.39-.37-.67-.86-1.23-1.48-1.68-.62-.45-1.33-.78-2.13-1s-1.64-.33-2.51-.33h-4.56v10.53c.83.03,1.59.05,2.26.05h2.3c.87,0,1.71-.1,2.51-.29.8-.19,1.51-.49,2.13-.91.62-.41,1.11-.95,1.48-1.6.37-.65.55-1.44.55-2.37ZM616.35,213.54c0-.8-.16-1.53-.48-2.2-.32-.67-.75-1.24-1.3-1.7s-1.19-.82-1.91-1.08c-.72-.25-1.49-.38-2.33-.38-1.14-.03-2.26-.04-3.36-.02-1.1.02-2.22.02-3.36.02v10.58h5.82c.83,0,1.67-.1,2.51-.29.83-.19,1.58-.5,2.23-.93.65-.43,1.18-.97,1.58-1.63.4-.65.6-1.44.6-2.37Z"/>
        <path class="cls-2" d="M655.7,200.14l-3.86,5.84c-.7-.73-1.48-1.38-2.33-1.94-.85-.56-1.71-.84-2.58-.84-.47,0-.98.1-1.53.31s-1.07.55-1.55,1.03c-.49.48-.9,1.11-1.23,1.89-.33.78-.5,1.75-.5,2.9v15.61h-7.22v-27.67h7.22v2.97c.87-1.18,1.83-2.09,2.88-2.73s2.23-.96,3.53-.96,2.52.33,3.73.98c1.22.65,2.36,1.52,3.43,2.61Z"/>
        <path class="cls-2" d="M687.73,224.93h-7.22v-1.48c-1.27.83-2.62,1.4-4.04,1.72-1.42.32-2.88.48-4.39.48-1.4,0-2.67-.2-3.81-.6-1.14-.4-2.12-.97-2.96-1.72-.84-.75-1.48-1.64-1.93-2.66s-.68-2.16-.68-3.4c0-1.56.36-2.93,1.08-4.09.72-1.16,1.7-2.14,2.93-2.92,1.24-.78,2.68-1.36,4.34-1.75,1.66-.38,3.43-.58,5.34-.58h4.16c0-1.63-.55-2.92-1.66-3.88-1.1-.96-2.69-1.44-4.76-1.44-1,0-2.04.18-3.11.53-1.07.35-2.14.99-3.21,1.92l-4.26-4.12c1.54-1.4,3.32-2.49,5.34-3.26s4.1-1.15,6.24-1.15c2,0,3.79.3,5.36.91s2.83,1.39,3.79,2.34c1.26,1.21,2.15,2.57,2.66,4.07.51,1.5.77,3.42.77,5.75v15.32ZM680.52,218.04v-5.12h-3.31c-1,0-1.95.06-2.83.19-.88.13-1.65.34-2.31.65-.65.3-1.17.69-1.55,1.17s-.58,1.05-.58,1.72c0,.96.39,1.74,1.18,2.34.79.61,1.8.91,3.03.91,1.07,0,2.13-.16,3.18-.48,1.05-.32,2.11-.78,3.19-1.39Z"/>
        <path class="cls-2" d="M725.63,224.93h-7.22v-16.52c0-.99-.16-1.86-.48-2.61-.32-.75-.75-1.37-1.28-1.87-.54-.5-1.15-.86-1.84-1.1-.69-.24-1.4-.36-2.14-.36-1.11,0-2.2.18-3.27.55-1.07.37-2.05.95-2.92,1.75v20.15h-7.22v-27.67h7.22l.05,2.06c.43-.41.97-.8,1.61-1.15.63-.35,1.29-.65,1.98-.89.68-.24,1.39-.42,2.11-.55.72-.13,1.41-.19,2.08-.19,1.47,0,2.88.22,4.24.67,1.35.45,2.56,1.13,3.61,2.06,1.05.93,1.9,2.12,2.53,3.59.63,1.47.95,3.21.95,5.22v16.85Z"/>
        <path class="cls-2" d="M763.98,224.93h-7.37v-1.44c-.94.73-1.95,1.27-3.06,1.6-1.1.33-2.27.5-3.51.5-2.04,0-3.91-.39-5.61-1.17-1.71-.78-3.18-1.84-4.41-3.16-1.24-1.32-2.2-2.86-2.88-4.62-.68-1.76-1.03-3.61-1.03-5.55,0-2.07.39-4,1.18-5.77.79-1.77,1.83-3.31,3.13-4.62,1.3-1.31,2.79-2.34,4.46-3.09,1.67-.75,3.39-1.13,5.16-1.13,1.24,0,2.44.16,3.61.48,1.17.32,2.17.77,3.01,1.34v-13.12h7.32v39.73ZM756.71,217.51v-13.31c-.34-.22-.72-.44-1.16-.65s-.89-.38-1.36-.53-.94-.26-1.41-.33-.89-.12-1.26-.12c-1.21,0-2.31.2-3.29.6-.99.4-1.85.97-2.59,1.72s-1.31,1.65-1.71,2.7c-.4,1.05-.6,2.22-.6,3.5s.2,2.39.6,3.42c.4,1.04.96,1.93,1.66,2.68.7.75,1.55,1.33,2.54,1.75.99.42,2.07.62,3.25.62,1.91,0,3.69-.69,5.33-2.06Z"/>
        <path class="cls-2" d="M797.21,217.18c0,1.37-.34,2.59-1,3.66-.67,1.07-1.54,1.96-2.61,2.68s-2.28,1.26-3.62,1.63c-1.34.37-2.66.55-3.97.55-2.21,0-4.24-.39-6.1-1.17-1.86-.78-3.49-2.03-4.9-3.76l4.36-4.21c.87,1.05,1.87,1.88,3.01,2.47,1.13.59,2.36.89,3.66.89,1.14,0,2.08-.2,2.83-.6s1.13-1,1.13-1.8-.54-1.52-1.61-2.08c-1.07-.56-2.57-1.11-4.51-1.65-1.14-.32-2.24-.72-3.31-1.22-1.07-.49-2.02-1.1-2.86-1.82-.84-.72-1.5-1.54-2.01-2.47-.5-.93-.75-1.99-.75-3.21,0-1.34.32-2.55.98-3.61.65-1.07,1.51-1.96,2.56-2.68,1.06-.72,2.25-1.27,3.59-1.65s2.7-.58,4.07-.58c4.42,0,8.04,1.6,10.85,4.79l-4.31,4.17c-.83-.99-1.79-1.77-2.86-2.35-1.07-.57-2.24-.86-3.51-.86-.43,0-.9.05-1.38.17-.49.11-.94.27-1.35.48-.42.21-.76.48-1.03.81-.27.33-.4.71-.4,1.13,0,.73.51,1.37,1.53,1.91,1.02.54,2.48,1.09,4.39,1.63,1.24.35,2.41.8,3.51,1.34,1.1.54,2.07,1.17,2.91,1.89.83.72,1.49,1.53,1.98,2.44.48.91.73,1.94.73,3.09Z"/>
      </g>
      <rect class="cls-1" x="298.75" y="14.15" width="12.96" height="225.84"/>
    </g>
  </g>
</svg>